<svg width="161" height="56" viewBox="0 0 161 56" fill="none" xmlns="http://www.w3.org/2000/svg">
<path d="M0.732843 40.9152V40.2428C4.62255 40.0187 5.46814 39.7946 5.46814 36.0405V15.1968C5.46814 11.4427 4.62255 11.2186 0.732843 10.9945V10.3221H9.13235L25.9314 35.5362V15.1968C25.9314 11.4427 25.2549 11.2186 21.3652 10.9945V10.3221H32.1887V10.9945C28.299 11.2186 27.6225 11.4427 27.6225 15.1968V40.9152H26.3824L7.10294 12.0591V36.0405C7.10294 39.7946 7.94853 40.0187 11.7819 40.2428V40.9152H0.732843Z" fill="white"/>
<path d="M48.3676 38.674C46.2255 40.1308 43.6324 41.5316 40.9828 41.5316C37.3186 41.5316 35.0637 40.1308 35.0637 37.049C35.0637 32.5665 40.1936 30.9416 48.3676 29.765V26.7953C48.3676 23.3774 47.4657 22.0326 44.7598 22.0326C41.7721 22.0326 40.0245 23.1533 39.5172 25.3385C39.2353 26.6272 38.6152 27.1875 37.9387 27.1875C37.0368 27.1875 36.6422 26.6272 36.6422 25.5626C36.6422 23.4334 39.5735 20.8 44.7598 20.8C48.0858 20.8 50.848 22.0326 50.848 26.7953V37.1611C50.848 38.9541 51.299 39.8506 52.3701 39.8506C52.9902 39.7946 53.6103 39.6265 54.174 39.2903V40.523C53.3284 41.0833 52.3701 41.4195 51.3554 41.3635C49.7206 41.3635 48.6495 40.523 48.3676 38.674ZM48.3113 37.3852V30.8856C41.9975 31.7261 37.8824 33.0148 37.8824 36.881C37.8824 39.1782 39.348 40.1308 41.3774 40.1308C43.6887 40.1308 46 39.0101 48.3113 37.3852Z" fill="white"/>
<path d="M67.4779 40.523C66.3505 41.0833 65.1667 41.3635 63.9265 41.4195C61.6152 41.4195 59.5858 40.4109 59.5858 36.7129V22.705H56.3725V22.2007C59.6985 21.0241 60.7132 18.7268 61.2206 15.0287H62.0662V21.4163H67.5343V22.705H62.0098V36.7689C62.0098 38.8421 62.6863 39.9066 64.6029 39.9066C65.5613 39.9066 66.576 39.7386 67.4779 39.3463V40.523Z" fill="white"/>
<path d="M70.1274 40.9152V40.2428C72.7206 40.0187 73.3407 39.5144 73.3407 37.7775V26.0109C73.3407 24.8902 72.8897 24.498 71.8186 24.498H70.1274V23.9937L75.0319 20.6879H75.8211V37.7214C75.8211 39.4024 76.4412 39.9627 79.0343 40.1868V40.8592H70.1274V40.9152Z" fill="white"/>
<path d="M91.9436 20.7439C97.75 20.7439 101.752 25.3385 101.752 31.1658C101.752 36.993 97.75 41.5876 91.9436 41.5876C86.1373 41.5876 82.1348 36.993 82.1348 31.1658C82.1348 25.3385 86.0809 20.7439 91.9436 20.7439ZM91.9436 40.2989C96.9044 40.2989 98.8774 36.2086 98.8774 31.1658C98.8774 26.1229 96.9044 22.0326 91.9436 22.0326C86.9828 22.0326 85.0098 26.1229 85.0098 31.1658C85.0098 36.2086 86.9265 40.2989 91.9436 40.2989Z" fill="white"/>
<path d="M117.65 40.9152V40.2428C120.243 40.0187 120.863 39.5144 120.863 37.7775V26.291C120.863 23.4895 119.397 22.2568 117.142 22.2568C114.775 22.3128 112.463 23.0412 110.547 24.386V37.7775C110.547 39.4584 111.167 40.0187 113.76 40.2428V40.9152H104.853V40.2428C107.446 40.0187 108.066 39.5144 108.066 37.7775V26.0109C108.066 24.8902 107.615 24.498 106.544 24.498H104.853V23.9937L109.757 20.6879H110.547V22.8731C112.238 21.8645 114.944 20.6879 117.48 20.6879C119.792 20.6879 123.4 21.6404 123.4 26.179V37.7214C123.4 39.4024 124.02 39.9627 126.613 40.1868V40.8592H117.65V40.9152Z" fill="white"/>
<path d="M142.961 38.674C140.819 40.1308 138.225 41.5316 135.576 41.5316C131.912 41.5316 129.657 40.1308 129.657 37.049C129.657 32.5665 134.787 30.9416 142.961 29.765V26.7953C142.961 23.3774 142.059 22.0326 139.353 22.0326C136.365 22.0326 134.618 23.1533 134.11 25.3385C133.828 26.6272 133.208 27.1875 132.532 27.1875C131.63 27.1875 131.179 26.6272 131.179 25.5626C131.179 23.4334 134.11 20.8 139.297 20.8C142.623 20.8 145.385 22.0326 145.385 26.7953V37.1611C145.385 38.9541 145.836 39.8506 146.907 39.8506C147.527 39.7946 148.147 39.6265 148.711 39.2903V40.523C147.865 41.1393 146.85 41.4195 145.836 41.4195C144.314 41.3635 143.243 40.523 142.961 38.674ZM142.904 37.3852V30.8856C136.591 31.7261 132.475 33.0148 132.475 36.881C132.475 39.1782 133.941 40.1308 135.971 40.1308C138.282 40.1308 140.593 39.0101 142.904 37.3852Z" fill="white"/>
<path d="M151.36 40.9152V40.2428C153.953 40.0187 154.574 39.5144 154.574 37.7775V14.9167C154.574 13.796 154.123 13.4038 153.108 13.4038H151.417V12.8995L156.321 9.59368H157.11V37.7214C157.11 39.4024 157.73 39.9627 160.324 40.1868V40.8592H151.36V40.9152Z" fill="white"/>
<path d="M7.27206 52.3456C7.49755 52.6258 7.61029 53.018 7.61029 53.3542C7.61029 53.8585 7.3848 54.3067 6.9902 54.5869C6.48284 54.923 5.86274 55.0911 5.24265 55.0351H2.31127V48.8156H5.01716C5.58088 48.7596 6.14461 48.9277 6.65196 49.2639C7.04657 49.544 7.21569 49.9923 7.21569 50.4405C7.21569 50.7767 7.15931 51.0569 6.9902 51.337C6.82108 51.5612 6.53922 51.7853 6.25735 51.8974C6.65196 51.8974 6.9902 52.0655 7.27206 52.3456ZM2.98775 49.3199V51.6172H5.01716C5.41176 51.6732 5.86274 51.5612 6.20098 51.337C6.65196 50.9448 6.76471 50.2724 6.3701 49.8242C6.31373 49.7682 6.25735 49.7121 6.20098 49.6561C5.86274 49.432 5.41176 49.3199 5.01716 49.3759L2.98775 49.3199ZM6.48284 54.2507C6.76471 54.0266 6.93382 53.6904 6.93382 53.3542C6.93382 52.5697 6.3701 52.1775 5.24265 52.1775H2.98775V54.5308H5.24265C5.69363 54.5308 6.08823 54.4748 6.48284 54.2507Z" fill="white"/>
<path d="M14.375 54.4188C13.8676 53.8585 13.6422 53.13 13.6985 52.4016V48.8156H14.375V52.4016C14.3186 52.962 14.4877 53.5783 14.8824 54.0266C15.277 54.4188 15.7843 54.6429 16.2917 54.5869C16.8554 54.6429 17.3627 54.4188 17.7574 54.0266C18.152 53.5783 18.3211 52.962 18.2647 52.4016V48.8717H18.9412V52.4577C18.9975 53.1861 18.7721 53.9145 18.2647 54.4748C17.7574 54.9791 17.0809 55.2032 16.348 55.1472C15.6152 55.1472 14.8824 54.9231 14.375 54.4188Z" fill="white"/>
<path d="M25.9314 54.923C25.5368 54.811 25.1985 54.5869 24.9167 54.3067L25.1985 53.8024C25.4804 54.0265 25.7623 54.2507 26.1005 54.3627C26.4951 54.4748 26.8897 54.5869 27.2843 54.5869C27.7353 54.6429 28.1863 54.5308 28.5245 54.2507C28.8064 54.0826 28.9755 53.7464 28.9755 53.4662C28.9755 53.2421 28.9191 53.018 28.75 52.8499C28.5809 52.6818 28.4118 52.5697 28.1863 52.5137C27.9608 52.4577 27.6225 52.3456 27.2279 52.2335C26.8333 52.1215 26.4951 52.0094 26.1005 51.8974C25.8186 51.7853 25.5931 51.6172 25.3676 51.3931C25.1422 51.1129 25.0294 50.7767 25.0858 50.4405C25.0858 50.1044 25.1985 49.8242 25.3676 49.6001C25.5368 49.3199 25.8186 49.0958 26.1569 48.9837C26.5515 48.8156 27.0025 48.7596 27.4534 48.7596C27.7917 48.7596 28.1863 48.8156 28.5245 48.9277C28.8627 49.0398 29.1446 49.1518 29.4265 49.3199L29.201 49.8242C28.9191 49.6561 28.6373 49.544 28.3554 49.432C28.0735 49.3199 27.7917 49.3199 27.4534 49.3199C27.0025 49.2639 26.5515 49.3759 26.2132 49.6561C25.9314 49.8242 25.7623 50.1604 25.8186 50.4966C25.8186 50.7207 25.875 50.9448 26.0441 51.1129C26.2132 51.281 26.3824 51.3931 26.6078 51.4491C26.8333 51.5612 27.1716 51.6172 27.5662 51.7293C27.9608 51.8413 28.299 51.9534 28.6936 52.0655C28.9755 52.1775 29.201 52.3456 29.4265 52.5697C29.652 52.8499 29.7083 53.13 29.7083 53.4662C29.7083 53.7464 29.5956 54.0826 29.4265 54.3067C29.2574 54.5869 28.9755 54.811 28.6373 54.923C28.2426 55.0911 27.7917 55.1472 27.3407 55.1472C26.8333 55.1472 26.3824 55.0351 25.9314 54.923Z" fill="white"/>
<path d="M35.7402 48.8156H36.4167V55.0911H35.7402V48.8156Z" fill="white"/>
<path d="M48.3676 48.8156V55.0911H47.8039L43.7451 49.9923V55.0911H43.0686V48.8156H43.6324L47.6912 53.9145V48.8156H48.3676Z" fill="white"/>
<path d="M59.5294 54.4748V55.0351H55.076V48.8156H59.4167V49.3759H55.7524V51.6172H59.0221V52.1775H55.7524V54.5308L59.5294 54.4748Z" fill="white"/>
<path d="M66.1814 54.923C65.7868 54.811 65.4485 54.5869 65.1667 54.3067L65.4485 53.8024C65.7304 54.0265 66.0123 54.2507 66.3505 54.3627C66.7451 54.4748 67.1397 54.5869 67.5343 54.5869C67.9853 54.6429 68.4363 54.5308 68.8309 54.2507C69.1127 54.0826 69.2819 53.7464 69.2819 53.4662C69.2819 53.2421 69.2255 53.018 69.0564 52.8499C68.8873 52.6818 68.7181 52.5697 68.4926 52.5137C68.2108 52.4016 67.8726 52.3456 67.5343 52.2335C67.1397 52.1215 66.8015 52.0094 66.4069 51.8974C66.125 51.7853 65.8995 51.6172 65.674 51.3931C65.4485 51.1129 65.3358 50.7767 65.3922 50.4405C65.3922 50.1604 65.5049 49.8242 65.6176 49.6001C65.7868 49.3199 66.0686 49.0958 66.4069 48.9837C66.8015 48.8156 67.2524 48.7596 67.7034 48.7596C68.0417 48.7596 68.4363 48.8156 68.7745 48.9277C69.1127 49.0398 69.3946 49.1518 69.6765 49.3199L69.451 49.8242C69.1691 49.6561 68.8873 49.544 68.6054 49.432C68.3235 49.3199 68.0417 49.3199 67.7034 49.3199C67.2524 49.2639 66.8015 49.3759 66.4632 49.6561C66.1814 49.8242 66.0123 50.1604 66.0123 50.4966C66.0123 50.7207 66.0686 50.9448 66.2377 51.1129C66.4069 51.281 66.576 51.3931 66.8015 51.4491C67.027 51.5612 67.3652 51.6172 67.7598 51.7293C68.1544 51.8413 68.4926 51.9534 68.8873 52.0655C69.1691 52.1775 69.3946 52.3456 69.6201 52.5697C69.8456 52.8499 69.9583 53.13 69.902 53.4662C69.902 53.7464 69.7892 54.0826 69.6201 54.3067C69.451 54.5869 69.1691 54.811 68.8309 54.923C68.4363 55.0911 67.9853 55.1472 67.5343 55.1472C67.027 55.1472 66.576 55.0351 66.1814 54.923Z" fill="white"/>
<path d="M76.3284 54.923C75.9338 54.811 75.5956 54.5869 75.3137 54.3067L75.5956 53.8024C75.8774 54.0265 76.1593 54.2507 76.4975 54.3627C76.8922 54.4748 77.2868 54.5869 77.6814 54.5869C78.1324 54.6429 78.5833 54.5308 78.9779 54.2507C79.2598 54.0826 79.4289 53.7464 79.4289 53.4662C79.4289 53.2421 79.3725 53.018 79.2034 52.8499C79.0343 52.6818 78.8652 52.5697 78.6397 52.5137C78.3578 52.4016 78.0196 52.3456 77.7377 52.2335C77.3431 52.1215 77.0049 52.0094 76.6103 51.8974C76.3284 51.7853 76.1029 51.6172 75.8774 51.3931C75.652 51.1129 75.5392 50.7767 75.5956 50.4405C75.5956 50.1604 75.7083 49.8242 75.8211 49.6001C75.9902 49.3199 76.2721 49.0958 76.6103 48.9837C77.0049 48.8156 77.4559 48.7596 77.9069 48.7596C78.2451 48.7596 78.6397 48.8156 78.9779 48.9277C79.3162 49.0398 79.598 49.1518 79.8799 49.3199L79.6544 49.8242C79.3726 49.6561 79.0907 49.544 78.8088 49.432C78.527 49.3199 78.2451 49.3199 77.9069 49.3199C77.4559 49.2639 77.0049 49.3759 76.6667 49.6561C76.3848 49.8242 76.2157 50.1604 76.2721 50.4966C76.2721 50.7207 76.3284 50.9448 76.4975 51.1129C76.6667 51.281 76.8358 51.3931 77.0613 51.4491C77.2868 51.5612 77.625 51.6172 78.0196 51.7293C78.4142 51.8413 78.7524 51.9534 79.147 52.0655C79.4289 52.1775 79.6544 52.3456 79.8799 52.5697C80.1054 52.8499 80.2181 53.13 80.1618 53.4662C80.1618 53.7464 80.049 54.0826 79.8799 54.3067C79.7108 54.5869 79.4289 54.811 79.0907 54.923C78.6961 55.0911 78.2451 55.1472 77.7941 55.1472C77.2304 55.1472 76.7794 55.0351 76.3284 54.923Z" fill="white"/>
<path d="M94.1985 54.6989C93.6912 54.4188 93.2966 54.0266 93.0147 53.5783C92.451 52.5697 92.451 51.337 93.0147 50.3285C93.2966 49.8802 93.6912 49.488 94.1985 49.2079C94.7059 48.9277 95.326 48.7596 95.8897 48.8156C96.3407 48.8156 96.7917 48.8717 97.1863 49.0398C97.5809 49.2079 97.9191 49.432 98.201 49.7121L97.75 50.1604C97.2426 49.6561 96.5662 49.3759 95.8897 49.432C95.4387 49.432 94.9314 49.544 94.5368 49.7682C94.1422 49.9923 93.8039 50.3285 93.5784 50.7207C93.1274 51.5612 93.1274 52.5697 93.5784 53.3542C93.8039 53.7464 94.1422 54.0826 94.5368 54.3067C94.9314 54.5308 95.4387 54.6429 95.8897 54.6429C96.5662 54.6429 97.2426 54.3627 97.75 53.9145L98.201 54.3627C97.9191 54.6429 97.5809 54.9231 97.1863 55.0351C96.7917 55.2032 96.3407 55.2592 95.8897 55.2592C95.326 55.1472 94.7059 54.9791 94.1985 54.6989Z" fill="white"/>
<path d="M108.066 53.4102H104.571L103.838 55.0911H103.162L106.037 48.8156H106.713L109.645 55.0911H108.968L108.066 53.4102ZM107.841 52.8499L106.319 49.488L104.797 52.8499H107.841Z" fill="white"/>
<path d="M119.51 49.3759C120.412 50.2164 120.412 51.5612 119.623 52.4016C119.585 52.439 119.547 52.4763 119.51 52.5137C118.946 52.9059 118.27 53.1301 117.593 53.074H115.902V55.0911H115.225V48.8156H117.593C118.27 48.7596 118.946 48.9837 119.51 49.3759ZM119.059 52.1215C119.397 51.8413 119.566 51.3931 119.566 50.9448C119.566 50.4966 119.397 50.0483 119.059 49.7682C118.664 49.488 118.157 49.3199 117.593 49.3759H115.902V52.5137H117.593C118.1 52.5137 118.608 52.4016 119.059 52.1215Z" fill="white"/>
<path d="M126.275 48.8156H126.951V55.0911H126.275V48.8156Z" fill="white"/>
<path d="M132.645 49.3759V48.8156H137.775V49.3759H135.576V55.0911H134.9V49.3759H132.645Z" fill="white"/>
<path d="M147.132 53.4102H143.637L142.904 55.0911H142.228L145.103 48.8156H145.779L148.654 55.0911H147.978L147.132 53.4102ZM146.907 52.8499L145.385 49.488L143.863 52.8499H146.907Z" fill="white"/>
<path d="M154.235 48.8156H154.912V54.5308H158.463V55.0911H154.235V48.8156Z" fill="white"/>
<path d="M65.4485 7.96877C65.9559 7.80067 66.4632 7.63258 66.9142 7.46449C68.4926 6.9602 70.1274 6.56798 71.7623 6.34386C71.875 6.34386 71.9314 6.2318 71.9877 6.17577L74.4118 0.852785L74.4681 0.740723L75.3137 2.53373L76.7794 5.61545C76.7794 5.67148 76.8922 5.72751 76.9485 5.72751C78.5833 5.67148 80.2181 5.67148 81.7966 5.78355C82.6422 5.83958 83.4877 5.89561 84.3333 6.00767C85.4608 6.17576 86.5319 6.34386 87.6593 6.51195C87.6969 6.51195 87.7345 6.53063 87.7721 6.56798C87.3774 6.56798 87.0392 6.62402 86.701 6.62402L85.0098 6.73608C84.7843 6.73608 84.5024 6.73608 84.277 6.79211C83.2623 6.90417 82.2476 7.01624 81.2328 7.18433C79.9363 7.35242 78.5833 7.63258 77.3431 7.96877C75.0882 8.52908 73.0024 9.48162 71.0294 10.6583C70.6912 10.8824 70.4093 11.0505 70.1274 11.2746C70.0711 11.3307 69.9583 11.3307 69.8456 11.2746L65.674 8.13686L65.4485 7.96877Z" fill="white"/>
<path d="M66.6887 17.5501C69.3946 13.4598 73.5098 10.4902 78.3015 9.20146L82.1912 17.5501C82.0784 17.4941 81.9657 17.4381 81.8529 17.382C80.6691 16.5976 79.3725 15.9252 78.076 15.3649C77.174 14.9727 76.2721 14.7486 75.3137 14.5805C74.4681 14.4684 73.6225 14.5244 72.8333 14.6925C71.3676 15.0287 69.9583 15.589 68.7181 16.3735C68.098 16.7097 67.4779 17.1019 66.8578 17.4941C66.8203 17.5315 66.7639 17.5501 66.6887 17.5501Z" fill="#B20C01"/>
<path d="M161 44.2771H0V44.5572H161V44.2771Z" fill="white"/>
</svg>
