<?xml version="1.0" encoding="UTF-8"?><svg id="Layer_2" xmlns="http://www.w3.org/2000/svg" viewBox="0 0 432.18 129.01"><defs><style>.cls-1{fill:#4d4d4d;}.cls-1,.cls-2,.cls-3{stroke-width:0px;}.cls-2{fill:gray;}.cls-3{fill:#231f20;}</style></defs><g id="Artwork"><g id="Logo_Grayscale"><path class="cls-3" d="m6.46,79.02v-9.16c6.68,2.29,13.63,3.44,20.84,3.44,9.58,0,14.37-2.86,14.37-8.59,0-5.34-3.15-8.02-9.45-8.02h-9.73c-12.6,0-18.9-5.92-18.9-17.75s8.34-17.18,25.02-17.18c7.18,0,14.11.95,20.79,2.86v9.16c-6.68-2.29-13.61-3.44-20.79-3.44-10,0-15,2.86-15,8.59,0,5.35,2.96,8.02,8.88,8.02h9.73c13.36,0,20.04,5.92,20.04,17.75s-8.32,17.18-24.97,17.18c-7.22,0-14.16-.96-20.84-2.86Z"/><path class="cls-3" d="m62.89,81.89V21.76h7.16l1.78,7.56c6.91-5.04,13.76-7.56,20.56-7.56,7.56,0,12.92,2.75,16.09,8.25,7.67-5.5,14.87-8.25,21.59-8.25,12.67,0,19.01,7.62,19.01,22.85v37.28h-10.6v-37.85c0-8.97-3.78-13.46-11.34-13.46-5.65,0-10.94,2.6-15.86,7.79v43.52h-10.59v-37.68c0-9.09-3.74-13.63-11.22-13.63-5.96,0-11.28,2.6-15.98,7.79v43.52h-10.59Z"/><path class="cls-3" d="m159.08,63.16c0-12.33,8.13-18.5,24.39-18.5,5.99,0,11.22.38,15.69,1.15v-5.67c0-6.53-5.4-9.79-16.2-9.79-6.19,0-12.52.95-19.01,2.86v-8.59c6.49-1.91,12.83-2.86,19.01-2.86,17.87,0,26.8,6.41,26.8,19.24v40.89h-5.38l-4.24-4.24c-5.23,2.83-11.38,4.24-18.44,4.24-15.08,0-22.62-6.24-22.62-18.72Zm24.39-9.91c-9.2,0-13.8,3.25-13.8,9.73,0,6.87,4.01,10.31,12.03,10.31,7.33,0,13.15-1.56,17.46-4.69v-14.2c-4.2-.76-9.43-1.15-15.69-1.15Z"/><path class="cls-3" d="m223.42,81.89V21.76h7.16l1.89,7.67c5.27-5.12,11.6-7.67,19.01-7.67v8.82c-7.18,0-13,2.54-17.47,7.62v43.69h-10.59Z"/><path class="cls-3" d="m259.44,12.03h6.64l2.29,9.73h13.97v8.59h-12.31v34.53c0,5.61,2.42,8.42,7.27,8.42h5.04v8.59h-7.79c-10.08,0-15.12-5.4-15.12-16.21V12.03Z"/><path class="cls-1" d="m292.03,0h10.59v24.62c4.54-1.91,9.41-2.86,14.6-2.86,19.01,0,28.52,9.62,28.52,28.86,0,20.84-9.98,31.27-29.95,31.27-8.63,0-16.55-.82-23.77-2.46V0Zm10.59,71.41c3.47,1.11,7.69,1.66,12.66,1.66,13.36,0,20.04-7.62,20.04-22.85,0-12.86-6.05-19.3-18.15-19.3-5.5,0-10.35,1.03-14.54,3.09v37.39Z"/><path class="cls-1" d="m365.52,0v8.59h-10.59V0h10.59Zm0,21.76v60.13h-10.59V21.76h10.59Z"/><path class="cls-1" d="m376.38,21.76h44.09v8.59l-32.47,43.52h31.32v8.02h-44.09v-8.02l32.93-43.52h-31.78v-8.59Z"/><path class="cls-2" d="m282.85,122.87h0c-33.63,5.58-140.14,19.16-282.85-28.48,70.08,11.4,198.78,26.26,282.46,3.2l.39,25.28Z"/><path class="cls-3" d="m430.87,74.56c-.87-.87-2.02-1.34-3.24-1.34s-2.35.46-3.19,1.32c-.87.88-1.35,2.04-1.35,3.24s.46,2.33,1.34,3.21c.88.87,2.01,1.35,3.2,1.35s2.35-.49,3.24-1.37c.86-.85,1.32-1.95,1.32-3.19s-.47-2.37-1.32-3.22Zm-3.24,7.2c-1.05,0-2.04-.42-2.8-1.18-.76-.76-1.18-1.76-1.18-2.8s.42-2.06,1.19-2.84c.73-.74,1.73-1.15,2.79-1.15s2.07.41,2.84,1.18c.74.74,1.15,1.74,1.15,2.81s-.4,2.05-1.15,2.79c-.78.77-1.79,1.19-2.84,1.19Z"/><path class="cls-3" d="m429.97,76.54c0-1.03-.7-1.5-2.21-1.5h-1.94v5.33h.83v-2.32h1.21l1.12,2.32h.95l-1.18-2.43c.74-.12,1.22-.66,1.22-1.4Zm-3.31-.9h.97c1.04,0,1.5.27,1.5.87,0,.71-.37.93-1.5.93h-.97v-1.8Z"/></g></g></svg>